<svg font-family="Segoe UI, Tahoma, Geneva, Verdana, sans-serif" viewBox="170 30 480 290" xmlns="http://www.w3.org/2000/svg" xmlns:xlink="http://www.w3.org/1999/xlink"><marker id="a" markerHeight="6" markerUnits="strokeWidth" markerWidth="8" orient="auto" refX="7" refY="3"><path d="m0 0 8 3-8 3z"/></marker><path d="m170 30h480v290h-480z" fill="#fff"/><circle cx="200" cy="250" r="12"/><text font-size="16" text-anchor="middle" x="200" y="285">State</text><circle cx="400" cy="150" r="12"/><text font-size="16" text-anchor="middle" x="400" y="195">Derived state</text><circle cx="600" cy="250" r="12"/><text font-size="16" text-anchor="middle" x="600" y="285">Derived state</text><g stroke="#000"><path d="m219.7 238.5 160.6-77" stroke-width="2.5"/><path d="m419.7 161.5 160.6 77" stroke-width="2.5"/><g fill="none" stroke-linecap="round" stroke-linejoin="round" stroke-width="2" transform="translate(200 100)"><circle r="10"/><path d="m0 10v20"/><path d="m-15 20 15-5 15 5"/><path d="m0 30-10 15m10-15 10 15"/></g><path d="m200 152v72" marker-end="url(#a)" stroke-dasharray="5 5" stroke-width="2"/></g><text font-size="14" x="210" y="190">Update</text><path d="m388 144a40 40 0 1 1 24 0" fill="none" marker-end="url(#a)" stroke="#000" stroke-dasharray="5 5" stroke-width="2"/><text font-size="14" text-anchor="middle" x="400" y="55">Side effect</text></svg>